# xmcd CD database file
#
# Track frame offsets:
#	150
#	13367
#	28763
#	47537
#	58492
#	74644
#	91943
#	108827
#	124831
#	146053
#
# Disc length: 2160 seconds
#
# Revision: 0
# Processed by: cddbd v1.5.2PL0 Copyright (c) Steve Scherf et al.
# Submitted via: CDex 1.51
#
DISCID=95086e0a
DTITLE=Cerro Negro - CORAZONES LOCOS
DYEAR=1900
DGENRE=Jazz
TTITLE0=El Agua Limpia
TTITLE1=La Niña de Mi Sueño 
TTITLE2=Eos
TTITLE3=La Calle
TTITLE4=La Vida 
TTITLE5=Watering The Desert
TTITLE6=Bohemio
TTITLE7=Recuerdos de Tí
TTITLE8=La Muerte de la  Luna
TTITLE9=¿Que vas a Hacer?
EXTD=
EXTT0=
EXTT1=
EXTT2=
EXTT3=
EXTT4=
EXTT5=
EXTT6=
EXTT7=
EXTT8=
EXTT9=
PLAYORDER=
